<svg width="282" height="39" viewBox="0 0 282 39" fill="none" xmlns="http://www.w3.org/2000/svg">
<g clip-path="url(#clip0_314_21)">
<path d="M27.5755 37.5598C25.8675 37.5598 24.4236 37.0051 23.2438 35.8958C21.9231 34.6631 21.1483 33.0783 20.9194 31.1414C18.1196 35.3147 15.1877 37.4013 12.1237 37.4013C10.2044 37.4013 8.76924 36.6529 7.81835 35.1562C6.88508 33.6418 6.41845 31.8721 6.41845 29.8471C6.41845 27.1177 7.35172 22.5834 9.21826 16.2442C10.2748 12.7048 11.0936 9.45598 11.6747 6.49769C11.7275 6.1279 11.7539 5.81094 11.7539 5.54681C11.7539 4.84245 11.5602 4.49027 11.1729 4.49027C10.7855 4.49027 10.3276 4.88647 9.79936 5.67887C9.11261 6.82345 8.40825 8.24977 7.68629 9.95784C6.96432 11.6659 6.47127 13.0218 6.20714 14.0255C6.01344 14.7299 5.30028 15.082 4.06766 15.082C3.06395 15.082 2.12187 14.8179 1.24143 14.2896C0.413809 13.8142 0 13.1274 0 12.2294L0.0264134 11.8068C0.713161 8.51391 1.7873 5.9254 3.24884 4.04124C4.69277 2.13948 6.1367 0.933272 7.58063 0.422614C8.40825 0.140871 9.24468 0 10.0899 0C11.164 0 12.2646 0.228916 13.3916 0.686747C15.399 1.47915 16.7989 2.82623 17.5913 4.72799C17.8026 5.41474 17.9083 6.22475 17.9083 7.15802C17.9083 8.47869 17.697 10.0635 17.2743 11.9124C16.57 15.0644 15.7248 18.2516 14.7387 21.4741C13.3299 26.1052 12.6256 29.0283 12.6256 30.2433C12.6256 30.8068 12.7488 31.159 12.9954 31.2998C13.101 31.3351 13.2067 31.3527 13.3123 31.3527C14.5097 31.3527 16.0065 28.9314 17.8026 24.089C18.6478 21.8174 19.4666 19.4755 20.259 17.063C20.9458 14.9852 21.5973 13.101 22.2136 11.4106C23.411 8.15292 24.4324 6.5241 25.2776 6.5241C26.5454 6.54171 27.6284 6.79704 28.5264 7.29009C29.4421 7.78314 30.076 8.32021 30.4282 8.9013C30.798 9.4824 30.9829 9.97545 30.9829 10.3805C30.9829 10.7326 30.886 11.0848 30.6923 11.437C30.0408 12.564 29.3452 14.1311 28.6057 16.1386C27.8661 18.146 27.2498 20.2062 26.7567 22.3193C26.2637 24.4148 26.0172 26.2549 26.0172 27.8397C26.0172 29.6886 26.4926 30.842 27.4435 31.2998L27.6284 31.3263C28.2447 31.3263 29.0195 30.4898 29.9528 28.817C30.9917 26.968 31.9954 24.5732 32.9639 21.6325C33.9324 18.6742 34.5927 15.9977 34.9449 13.6029C35.2971 11.2081 35.4731 9.2975 35.4731 7.87118C35.4731 6.48008 35.3675 5.17702 35.1562 3.962L35.1298 3.64504C35.1298 2.7646 35.6316 2.13948 36.6353 1.7697C37.3397 1.50556 38.0793 1.37349 38.8541 1.37349C39.2767 1.37349 39.7169 1.41752 40.1747 1.50556C41.425 1.75209 42.1909 2.31557 42.4727 3.19602C42.7192 4.32299 42.8425 5.59963 42.8425 7.02595C42.8425 8.55793 42.7016 10.266 42.4199 12.1501C41.8916 15.8128 40.9583 19.5283 39.62 23.2966C38.2994 27.0649 36.6617 30.2873 34.7072 32.9639C32.7702 35.6404 30.6131 37.1636 28.2359 37.5334L27.5755 37.5598Z" fill="#F4EDE8"/>
<path d="M44.4009 36.5825C43.7141 36.5825 43.001 36.4328 42.2614 36.1335C41.5218 35.8341 41.1256 35.3059 41.0728 34.5487C41.1432 30.1641 42.0413 25.0047 43.7669 19.0704C45.4926 13.1186 47.5617 8.19695 49.9741 4.30538C50.52 3.60102 51.1627 3.24884 51.9023 3.24884C53.2757 3.24884 54.4291 3.97081 55.3624 5.41474C55.697 5.9254 55.8643 6.44486 55.8643 6.97313C55.8643 7.46618 55.7058 7.96803 55.3888 8.47869C53.716 10.8207 52.4569 12.8721 51.6117 14.633C50.7841 16.3763 49.9565 18.4013 49.1289 20.7081C51.5237 16.7285 54.0681 14.7387 56.7623 14.7387C58.6289 14.7387 60.0816 15.6103 61.1205 17.3536C61.6136 18.2164 61.8601 19.1233 61.8601 20.0742C61.8601 20.3911 61.8337 20.7169 61.7808 21.0515C61.4111 22.6363 60.83 24.3971 60.0376 26.3341C59.4741 27.7957 58.981 29.1956 58.5584 30.5338C58.2239 31.6256 58.0566 32.6029 58.0566 33.4657L58.083 34.1261C58.083 34.9713 57.5811 35.614 56.5774 36.0542C55.8026 36.3712 55.0102 36.5297 54.2002 36.5297C53.2317 36.5121 52.5274 36.3976 52.0871 36.1863C51.6469 35.975 51.4004 35.5524 51.3476 34.9185C51.3124 34.6015 51.2947 34.2845 51.2947 33.9676C51.2947 32.6997 51.5237 31.3615 51.9815 29.9528C52.3689 28.7025 52.8091 27.4699 53.3022 26.2549C54.0946 24.3883 54.7021 22.4954 55.1247 20.576L55.1511 20.1534C55.1511 19.8012 55.0454 19.6251 54.8341 19.6251C54.8165 19.6251 54.7021 19.6515 54.4908 19.7044C54.2971 19.7396 53.9801 20.0125 53.5399 20.5232C52.501 21.8086 51.5061 23.5959 50.5552 25.8851C49.6219 28.1566 48.7943 30.3313 48.0723 32.4092C47.5969 33.7123 47.2007 34.76 46.8837 35.5524C46.5139 36.2391 45.6863 36.5825 44.4009 36.5825Z" fill="#F4EDE8"/>
<path d="M66.1391 37.5334H66.2711C67.9968 37.5158 69.969 36.1863 72.1877 33.545C73.4613 32.0307 74.6549 30.1738 75.7686 27.9743C76.4044 28.6023 77.1037 29.1034 77.8666 29.4773C78.7646 29.9175 79.5746 30.2521 80.2966 30.481C81.2299 30.8332 81.7317 31.1414 81.8022 31.4055C81.8726 31.652 81.9078 31.8193 81.9078 31.9073C81.9078 32.1891 81.7582 32.4356 81.4588 32.6469C81.1771 32.8582 80.8073 32.9639 80.3494 32.9639H80.0853C79.4338 32.8406 78.8087 32.5501 78.21 32.0922C77.6113 31.6344 77.1622 31.2294 76.8629 30.8772C76.5987 30.6131 76.3082 30.481 75.9912 30.481C75.6567 30.481 75.3045 30.6395 74.9347 30.9565C74.2303 31.5552 73.7813 32.2067 73.5876 32.9111C73.3763 33.5978 73.2707 34.0997 73.2707 34.4166C73.2707 35.0505 73.4732 35.6228 73.8782 36.1335C75.3749 37.6655 77.1534 38.4314 79.2137 38.4314H79.3457C81.4412 38.3786 83.3253 37.551 84.9982 35.9486C85.8434 35.1914 86.4157 34.3726 86.7151 33.4921C87.0144 32.5941 87.1641 31.7489 87.1641 30.9565C87.1641 29.4773 86.4861 28.2183 85.1303 27.1794C84.4611 26.7215 83.7744 26.3605 83.07 26.0964C82.1191 25.7442 81.4236 25.3304 80.9834 24.855C80.5607 24.3795 80.3494 23.7984 80.3494 23.1117C80.3494 21.4741 81.0186 19.9333 82.3569 18.4894C82.9732 17.8554 83.4662 17.5385 83.836 17.5385C84.1354 17.5385 84.2938 17.7322 84.3114 18.1196C84.3114 18.4013 84.2146 18.8503 84.0209 19.4666C83.9152 19.7836 83.7832 20.0565 83.6247 20.2855L83.4134 20.7081C83.2549 21.0603 83.1757 21.3948 83.1757 21.7118C83.1757 22.2401 83.3958 22.7155 83.836 23.1381C84.3467 23.6312 84.8221 23.9745 85.2623 24.1682C85.7202 24.3619 86.2484 24.4588 86.8471 24.4588C87.481 24.4588 87.9389 24.2299 88.2206 23.772C89.0659 22.152 89.4885 20.4792 89.4885 18.7535L89.4621 17.9347C89.2155 15.9097 88.5552 14.5097 87.481 13.7349C86.4245 12.9425 85.2887 12.5463 84.0737 12.5463C82.1544 12.5463 80.2614 13.3387 78.3949 14.9236C76.8805 16.2266 75.6743 18.0227 74.7762 20.3119C74.4057 21.331 74.1743 22.2555 74.0823 23.0856C73.3998 24.7213 72.6186 26.218 71.7387 27.5756C70.5237 29.4597 69.4495 30.7452 68.5163 31.4319C68.1465 31.696 67.8559 31.8281 67.6446 31.8281C67.3453 31.8105 67.1956 31.5023 67.1956 30.9036V30.7187C67.3717 29.1339 67.9264 27.2058 68.8596 24.9342C69.8105 22.6451 70.7174 20.7961 71.5802 19.3874C71.7915 18.9824 71.906 18.5774 71.9236 18.1724V18.0667C71.9236 17.4856 71.6242 16.8253 71.0255 16.0857C70.4268 15.3286 69.5552 14.8179 68.4106 14.5538C68.2345 14.5185 68.0672 14.4921 67.9087 14.4745H67.8031C66.9403 14.4745 66.2271 14.9147 65.6636 15.7952C64.9945 17.063 64.2461 18.8679 63.4185 21.2099C62.5733 23.5343 61.9481 25.9379 61.5431 28.4208C61.4199 29.1427 61.3494 29.8295 61.3318 30.481C61.3142 30.6923 61.3054 30.9036 61.3054 31.1149C61.3054 32.2771 61.4727 33.4129 61.8073 34.5223C62.406 36.5297 63.8499 37.5334 66.1391 37.5334Z" fill="#F4EDE8"/>
<path d="M69.8105 13.418C70.1275 13.5413 70.4532 13.6117 70.7878 13.6293H70.867C71.6418 13.6469 72.4254 13.418 73.2178 12.9425C74.0102 12.4671 74.6618 11.6131 75.1724 10.3805C75.4894 9.62327 75.6567 8.76043 75.6743 7.79194C75.6743 7.01715 75.5334 6.36562 75.2517 5.83735C74.9699 5.29148 74.4681 4.89528 73.7461 4.64875C72.7072 4.29657 71.6947 4.41103 70.7086 4.99213C69.7401 5.57322 68.9653 6.47127 68.3842 7.68629C68.0672 8.44347 67.8911 9.16544 67.8559 9.85218V9.98425C67.8735 10.8295 68.0672 11.5602 68.437 12.1766C68.8244 12.7929 69.2822 13.2067 69.8105 13.418Z" fill="#F4EDE8"/>
<path d="M98.6539 36.7674C99.0413 37.2076 99.552 37.4277 100.186 37.4277C100.503 37.4277 100.846 37.3749 101.216 37.2693C102.343 36.9347 103.241 36.4328 103.91 35.7637C104.579 35.0946 104.914 34.4959 104.914 33.9676C104.914 33.7035 104.843 33.4305 104.703 33.1488C104.121 32.1098 103.734 31.0445 103.54 29.9528C103.364 29.0371 103.083 28.1831 102.695 27.3907C102.308 26.5806 101.612 25.8763 100.608 25.2776C101.278 24.9782 102.193 24.4852 103.355 23.7984C104.535 23.0941 105.68 22.196 106.789 21.1043C107.899 20.0125 108.682 18.7183 109.14 17.2215C109.175 17.0454 109.193 16.8693 109.193 16.6932C109.193 16.0065 108.867 15.399 108.216 14.8707C107.388 14.2192 106.437 13.8934 105.363 13.8934C104.289 13.8758 103.47 14.3337 102.906 15.2669C102.114 16.7989 101.225 18.1724 100.239 19.3874C99.2526 20.6024 98.2753 21.4124 97.3068 21.8174C97.9583 19.9157 98.8388 17.873 99.9482 15.6895C101.058 13.506 102.554 11.12 104.438 8.53152C104.755 8.03847 104.914 7.53661 104.914 7.02595C104.914 6.55051 104.773 6.06627 104.491 5.57322C103.505 4.02364 102.334 3.24884 100.978 3.24884C100.362 3.24884 99.8073 3.49537 99.3142 3.98842C97.5005 6.18953 95.7484 9.27109 94.058 13.2331C92.3675 17.1951 91.0204 21.1483 90.0167 25.0927C88.9954 29.0371 88.4848 32.2771 88.4848 34.8128V35.4467C88.5904 36.2567 88.9778 36.7146 89.6469 36.8202C90.2985 36.9259 90.7651 36.9787 91.0469 36.9787C91.7864 36.9787 92.5084 36.829 93.2127 36.5297C94.1812 36.1247 94.6655 35.482 94.6655 34.6015V34.5487C94.6479 34.3374 94.6391 34.1085 94.6391 33.8619C94.6391 33.3513 94.6743 32.7614 94.7447 32.0922C94.9032 30.3137 95.1321 28.7377 95.4315 27.3642C95.9069 27.8397 96.2591 28.4912 96.488 29.3188C96.7345 30.1288 96.937 31.0005 97.0955 31.9338C97.254 32.8494 97.4389 33.7299 97.6502 34.5751C97.8791 35.4027 98.2137 36.1335 98.6539 36.7674Z" fill="#F4EDE8"/>
<path fill-rule="evenodd" clip-rule="evenodd" d="M129.373 22.874C128.721 24.4412 127.885 26.0612 126.863 27.734C125.666 29.671 124.292 31.4583 122.743 33.0959C121.193 34.716 119.688 35.8782 118.226 36.5825C116.765 37.2869 115.435 37.639 114.238 37.639C113.639 37.639 113.032 37.5686 112.415 37.4277C110.425 37.0051 109.034 36.0719 108.242 34.6279C107.432 33.1664 107.009 31.3791 106.974 29.266C106.974 28.6321 107.018 27.9806 107.106 27.3114C107.423 24.9342 108.154 22.6715 109.298 20.5232C110.425 18.3749 111.799 16.7109 113.419 15.5311C114.81 14.5626 116.324 14.0783 117.962 14.0783H118.041C119.591 14.0783 120.956 14.4305 122.135 15.1349C123.333 15.8216 124.055 16.7725 124.301 17.9875C124.354 18.3573 124.381 18.7271 124.381 19.0969C124.381 20.2414 124.16 21.4212 123.72 22.6363C123.139 24.2739 122.294 25.7618 121.184 27.1001C120.075 28.4208 119.027 29.2836 118.041 29.6886C117.055 30.076 116.272 30.2697 115.691 30.2697C114.916 30.2697 114.141 30.0672 113.366 29.6622C113.313 29.8735 113.287 30.0936 113.287 30.3225C113.287 30.7804 113.393 31.2206 113.604 31.6432C113.903 32.2243 114.229 32.5853 114.581 32.7262C114.933 32.8494 115.277 32.9111 115.611 32.9111C116.28 32.9111 117.099 32.6557 118.068 32.1451C119.494 31.2822 121 29.7503 122.584 27.5491C124.187 25.348 125.455 23.1205 126.388 20.8666C126.406 20.8313 126.423 20.8049 126.441 20.7873C126.265 20.2591 126.177 19.6339 126.177 18.912C126.177 17.6793 126.45 16.5964 126.995 15.6631C127.471 14.8531 128.087 14.4481 128.844 14.4481C129.003 14.4481 129.179 14.4657 129.373 14.5009C129.76 14.6242 130.112 14.721 130.429 14.7915C131.045 14.9324 131.838 15.0028 132.806 15.0028C133.652 15.0028 134.699 14.9412 135.95 14.8179L136.293 14.7915C137.508 14.7915 138.432 15.3021 139.066 16.3235C139.419 16.9046 139.595 17.5561 139.595 18.278C139.595 18.8944 139.463 19.5547 139.198 20.2591C137.314 24.6437 136.064 28.1743 135.448 30.8508C135.412 31.0445 135.395 31.2118 135.395 31.3527C135.395 31.6872 135.483 31.8545 135.659 31.8545C135.765 31.8545 135.888 31.8105 136.029 31.7225C136.575 31.3174 137.253 30.4194 138.063 29.0283C138.873 27.6372 139.639 26.1933 140.361 24.6965C140.791 23.8043 141.146 23.0529 141.426 22.4422C141.548 21.7851 141.747 21.075 142.025 20.3119C142.923 18.0227 144.129 16.2266 145.643 14.9236C147.51 13.3387 149.403 12.5463 151.322 12.5463C152.537 12.5463 153.673 12.9425 154.729 13.7349C155.804 14.5097 156.464 15.9097 156.71 17.9347L156.737 18.7535C156.737 20.4792 156.314 22.152 155.469 23.772C155.187 24.2299 154.729 24.4588 154.096 24.4588C153.497 24.4588 152.969 24.3619 152.511 24.1682C152.071 23.9745 151.595 23.6312 151.084 23.1381C150.644 22.7155 150.424 22.2401 150.424 21.7118C150.424 21.3948 150.503 21.0603 150.662 20.7081L150.873 20.2855C151.032 20.0565 151.164 19.7836 151.269 19.4666C151.463 18.8503 151.56 18.4013 151.56 18.1196C151.542 17.7322 151.384 17.5385 151.084 17.5385C150.715 17.5385 150.222 17.8554 149.605 18.4894C148.267 19.9333 147.598 21.4741 147.598 23.1117C147.598 23.7984 147.809 24.3795 148.232 24.855C148.672 25.3304 149.368 25.7442 150.318 26.0964C151.023 26.3605 151.71 26.7215 152.379 27.1794C153.735 28.2183 154.413 29.4773 154.413 30.9565C154.413 31.7489 154.263 32.5941 153.963 33.4921C153.664 34.3726 153.092 35.1914 152.247 35.9486C150.574 37.551 148.69 38.3786 146.594 38.4314H146.462C144.402 38.4314 142.623 37.6655 141.127 36.1335C140.722 35.6228 140.519 35.0505 140.519 34.4166C140.519 34.0997 140.625 33.5978 140.836 32.9111C141.03 32.2067 141.479 31.5552 142.183 30.9565C142.553 30.6395 142.905 30.481 143.24 30.481C143.557 30.481 143.847 30.6131 144.111 30.8772C144.411 31.2294 144.86 31.6344 145.458 32.0922C146.057 32.5501 146.682 32.8406 147.334 32.9639H147.598C148.056 32.9639 148.425 32.8582 148.707 32.6469C149.007 32.4356 149.156 32.1891 149.156 31.9073C149.156 31.8193 149.121 31.652 149.051 31.4055C148.98 31.1414 148.478 30.8332 147.545 30.481C146.823 30.2521 146.013 29.9175 145.115 29.4773C144.217 29.0371 143.407 28.4208 142.685 27.6284C142.677 27.6198 142.669 27.6111 142.661 27.6024C142.228 28.6007 141.761 29.6219 141.259 30.6659C140.378 32.4972 139.357 34.0732 138.195 35.3939C136.839 36.9435 135.28 37.7183 133.52 37.7183C132.005 37.7183 130.861 37.2252 130.086 36.2391C129.311 35.2354 128.924 33.9676 128.924 32.4356L128.95 31.6168C129.32 28.5881 130.165 25.5153 131.486 22.3985C130.676 22.6979 129.971 22.8564 129.373 22.874ZM114.74 25.7794C115.004 25.7794 115.286 25.665 115.585 25.4361C116.184 24.9782 116.765 24.2915 117.328 23.3758C117.909 22.4602 118.411 21.5533 118.834 20.6553C119.274 19.7572 119.494 19.0704 119.494 18.595C119.494 18.1724 119.344 17.9611 119.045 17.9611L118.86 17.9875C118.332 18.1636 117.724 18.6919 117.038 19.5723C116.368 20.4351 115.743 21.4124 115.162 22.5042C114.599 23.5959 114.203 24.5732 113.974 25.4361C114.22 25.665 114.476 25.7794 114.74 25.7794Z" fill="#F4EDE8"/>
<path d="M196.093 37.5598C194.385 37.5598 192.941 37.0051 191.761 35.8958C190.44 34.6631 189.666 33.0783 189.437 31.1414C186.637 35.3147 183.705 37.4013 180.641 37.4013C178.722 37.4013 177.286 36.6529 176.336 35.1562C175.402 33.6418 174.936 31.8721 174.936 29.8471C174.936 27.1177 175.869 22.5834 177.736 16.2442C178.792 12.7048 179.611 9.45598 180.192 6.49769C180.245 6.1279 180.271 5.81094 180.271 5.54681C180.271 4.84245 180.077 4.49027 179.69 4.49027C179.303 4.49027 178.845 4.88647 178.317 5.67887C177.63 6.82345 176.925 8.24977 176.204 9.95784C175.482 11.6659 174.989 13.0218 174.724 14.0255C174.531 14.7299 173.818 15.082 172.585 15.082C171.581 15.082 170.639 14.8179 169.759 14.2896C168.931 13.8142 168.517 13.1274 168.517 12.2294L168.544 11.8068C169.23 8.51391 170.305 5.9254 171.766 4.04124C173.21 2.13948 174.654 0.933272 176.098 0.422614C176.925 0.140871 177.762 0 178.607 0C179.681 0 180.782 0.228916 181.909 0.686747C183.916 1.47915 185.316 2.82623 186.109 4.72799C186.32 5.41474 186.425 6.22475 186.425 7.15802C186.425 8.47869 186.214 10.0635 185.792 11.9124C185.087 15.0644 184.242 18.2516 183.256 21.4741C181.847 26.1052 181.143 29.0283 181.143 30.2433C181.143 30.8068 181.266 31.159 181.513 31.2998C181.618 31.3351 181.724 31.3527 181.83 31.3527C183.027 31.3527 184.524 28.9314 186.32 24.089C187.165 21.8174 187.984 19.4755 188.776 17.063C189.463 14.9852 190.115 13.101 190.731 11.4106C191.928 8.15292 192.95 6.5241 193.795 6.5241C195.063 6.54171 196.146 6.79704 197.044 7.29009C197.959 7.78314 198.593 8.32021 198.945 8.9013C199.315 9.4824 199.5 9.97545 199.5 10.3805C199.5 10.7326 199.403 11.0848 199.21 11.437C198.558 12.564 197.862 14.1311 197.123 16.1386C196.383 18.146 195.767 20.2062 195.274 22.3193C194.781 24.4148 194.534 26.2549 194.534 27.8397C194.534 29.6886 195.01 30.842 195.961 31.2998L196.146 31.3263C196.762 31.3263 197.537 30.4898 198.47 28.817C199.509 26.968 200.513 24.5732 201.481 21.6325C202.45 18.6742 203.11 15.9977 203.462 13.6029C203.814 11.2081 203.99 9.2975 203.99 7.87118C203.99 6.48008 203.885 5.17702 203.673 3.962L203.647 3.64504C203.647 2.7646 204.149 2.13948 205.153 1.7697C205.857 1.50556 206.596 1.37349 207.371 1.37349C207.794 1.37349 208.234 1.41752 208.692 1.50556C209.942 1.75209 210.708 2.31557 210.99 3.19602C211.236 4.32299 211.36 5.59963 211.36 7.02595C211.36 8.55793 211.219 10.266 210.937 12.1501C210.409 15.8128 209.476 19.5283 208.137 23.2966C206.817 27.0649 205.179 30.2873 203.224 32.9639C201.287 35.6404 199.13 37.1636 196.753 37.5334L196.093 37.5598Z" fill="#F4EDE8"/>
<path fill-rule="evenodd" clip-rule="evenodd" d="M215.322 37.7447L216.114 37.7711C218.438 37.7711 220.472 37.0051 222.216 35.4731C224.153 33.7651 225.641 31.3439 226.679 28.2095C228.018 27.9982 229.277 27.4347 230.457 26.519C231.636 25.5857 232.517 24.3619 233.098 22.8476C233.609 22.8123 234.172 22.6627 234.788 22.3985C233.468 25.5153 232.622 28.5881 232.253 31.6168L232.226 32.4356C232.226 33.9676 232.614 35.2354 233.388 36.2391C234.163 37.2252 235.308 37.7183 236.822 37.7183C238.583 37.7183 240.141 36.9435 241.497 35.3939C242.346 34.4298 243.119 33.3296 243.817 32.0933C243.914 33.1994 244.153 34.1676 244.535 34.9977C244.993 36.019 245.591 36.7146 246.331 37.0844C247.071 37.4365 247.837 37.6126 248.629 37.6126H248.735C249.369 37.6126 250.002 37.507 250.636 37.2957C251.763 36.8907 252.741 36.3272 253.568 35.6052C254.293 34.9365 254.989 34.1499 255.655 33.2453C256.135 34.5947 256.963 35.6015 258.138 36.2655C258.842 36.5649 259.511 36.7146 260.145 36.7146C261.043 36.7146 261.888 36.4152 262.681 35.8165C264.019 34.7952 265.164 33.4393 266.115 31.7489C265.956 32.7878 265.877 33.6946 265.877 34.4694C265.877 35.8958 266.299 36.6617 267.145 36.7674C267.796 36.8554 268.254 36.8995 268.518 36.8995C269.328 36.8995 270.138 36.7234 270.948 36.3712C272.005 35.9134 272.577 35.2178 272.665 34.2845C272.788 29.8471 273.616 25.2688 275.148 20.5496C276.698 15.8128 278.626 11.8068 280.933 8.53152C281.232 8.02086 281.382 7.519 281.382 7.02595C281.382 6.49769 281.223 5.96942 280.906 5.44115C279.973 3.97961 278.828 3.24884 277.472 3.24884C276.715 3.24884 276.064 3.61863 275.518 4.35821C273.986 6.89389 272.243 10.9087 270.288 16.4027C269.636 14.272 268.087 13.2067 265.639 13.2067C265.111 13.2067 264.583 13.2771 264.054 13.418C262.188 13.9639 260.533 15.2669 259.089 17.3272C257.662 19.3698 256.65 21.5005 256.051 23.7192C255.801 24.6196 255.602 25.4707 255.453 26.2725C255.253 26.6828 255.048 27.0907 254.836 27.4963C253.78 29.5389 252.723 31.0093 251.666 31.9073C251.068 32.3828 250.61 32.6205 250.293 32.6205C249.941 32.6205 249.765 32.3035 249.765 31.6696V31.3791C250.187 28.4208 251.288 24.4676 253.066 19.5195C254.845 14.5538 256.535 10.8735 258.138 8.47869C258.455 7.96803 258.613 7.46618 258.613 6.97313C258.613 6.44486 258.446 5.9254 258.111 5.41474C257.583 4.60473 257.046 4.04124 256.5 3.72428C255.954 3.38972 255.347 3.21363 254.678 3.19602C253.92 3.19602 253.269 3.5658 252.723 4.30538C251.948 5.538 250.953 7.49259 249.738 10.1691C248.523 12.8281 247.37 15.7688 246.278 18.9912C246.082 19.5567 245.9 20.1027 245.73 20.6292C245.532 20.8147 245.354 21.0699 245.195 21.3948C244.896 22.0992 244.385 23.1997 243.663 24.6965C242.941 26.1933 242.175 27.6372 241.365 29.0283C240.256 30.9124 239.464 31.8545 238.988 31.8545C238.794 31.8545 238.698 31.6872 238.698 31.3527L238.75 30.8508C239.367 28.1743 240.617 24.6437 242.501 20.2591C242.765 19.5547 242.897 18.8944 242.897 18.278C242.897 17.5561 242.721 16.9046 242.369 16.3235C241.735 15.3021 240.811 14.7915 239.596 14.7915L239.252 14.8179C238.002 14.9412 236.954 15.0028 236.109 15.0028C235.141 15.0028 234.348 14.9324 233.732 14.7915C233.415 14.721 233.063 14.6242 232.675 14.5009C232.482 14.4481 232.306 14.4217 232.147 14.4217C231.566 14.4217 231.064 14.677 230.641 15.1877C230.096 15.8568 229.761 16.5436 229.638 17.2479C229.532 17.9523 229.479 18.4806 229.479 18.8327C229.479 19.5019 229.576 20.1446 229.77 20.7609C229.611 21.5357 229.303 22.1784 228.845 22.6891C228.405 23.1997 227.903 23.5783 227.34 23.8249V23.4022C227.34 22.6803 227.269 21.8527 227.128 20.9194C226.97 19.7924 226.627 18.8591 226.098 18.1196C225.588 17.38 224.91 17.0102 224.065 17.0102L223.536 17.0366C222.409 17.2655 221.679 17.8995 221.344 18.9384C221.009 19.9773 220.842 20.8225 220.842 21.4741C220.842 22.6891 221.159 24.1066 221.793 25.7266C221.353 27.0121 220.816 28.2271 220.182 29.3717C219.548 30.4986 218.94 31.3174 218.359 31.8281C217.796 32.3388 217.32 32.5941 216.933 32.5941C216.739 32.5941 216.554 32.5501 216.378 32.462C215.797 32.057 215.507 31.3263 215.507 30.2697C215.507 29.1075 215.806 27.6372 216.405 25.8587C216.915 24.3795 217.514 23.0325 218.201 21.8174C218.888 20.6024 219.513 19.7748 220.076 19.3346C220.552 18.9472 220.789 18.4806 220.789 17.9347C220.789 17.6177 220.701 17.2743 220.525 16.9046C220.067 15.9008 219.46 15.1613 218.703 14.6858C217.945 14.2104 217.329 13.9727 216.854 13.9727C216.466 13.9727 216.097 14.0871 215.744 14.316C214.318 15.4606 213.077 17.2391 212.02 19.6515C210.946 22.064 210.303 24.1418 210.092 25.8851C209.863 27.6108 209.748 28.8434 209.748 29.583C209.748 34.5487 211.606 37.2693 215.322 37.7447ZM263.949 29.3717C263.209 30.4986 262.61 31.0621 262.153 31.0621L261.994 31.0357C261.536 30.7716 261.307 30.1817 261.307 29.266C261.307 29.0195 261.325 28.7465 261.36 28.4472C261.519 27.0737 261.897 25.5681 262.496 23.9305C263.095 22.2753 263.764 20.8842 264.503 19.7572C265.243 18.6302 265.93 18.0667 266.564 18.0667H266.669C267.233 18.2604 267.515 18.8063 267.515 19.7044C267.515 19.9509 267.497 20.2238 267.462 20.5232C267.268 21.9143 266.819 23.4551 266.115 25.1455C265.41 26.836 264.688 28.2447 263.949 29.3717Z" fill="#F4EDE8"/>
</g>
<defs>
<clipPath id="clip0_314_21">
<rect width="282" height="39" fill="white"/>
</clipPath>
</defs>
</svg>
