<svg width="47" height="43" viewBox="0 0 47 43" fill="none" xmlns="http://www.w3.org/2000/svg">
<path fill-rule="evenodd" clip-rule="evenodd" d="M21.9501 5.84763C23.7728 -0.639529 32.1472 -0.253545 34.5998 4.8554C40.0697 2.83548 46.352 8.16419 42.9448 14.0335C44.8929 15.2914 48.0762 18.5923 45.0571 23.2177C44.9102 23.4426 44.6565 23.7252 44.3554 24.0606C43.9968 24.4601 43.5709 24.9344 43.1786 25.4751C41.8969 27.2417 40.446 29.7507 39.1076 32.9128L34.0804 43C20.5 43 10.5 43 0.490234 43L10.9826 21.9468C12.321 18.7846 13.1041 16.0153 13.4691 13.8913C13.5808 13.2412 13.6202 12.6162 13.6535 12.0898C13.6813 11.648 13.7048 11.2755 13.763 11.016C14.96 5.68018 19.6399 5.44518 21.9501 5.84763ZM31.2428 10.1769C30.2339 12.1769 28.0458 13.1615 26.3556 12.376C24.6654 11.5906 24.1131 9.33251 25.122 7.3325C26.1309 5.33251 28.319 4.34791 30.0092 5.13338C31.6994 5.91885 32.2518 8.1769 31.2428 10.1769ZM23.1537 14.2025C22.6373 16.3686 20.7347 17.7987 18.9041 17.3967C17.0735 16.9947 16.0081 14.9128 16.5245 12.7467C17.0409 10.5805 18.9435 9.15046 20.7741 9.55251C22.6047 9.95453 23.6701 12.0364 23.1537 14.2025ZM36.6348 24.3099C35.0307 23.3728 34.7061 21.0743 35.9099 19.1762C37.1137 17.2781 39.39 16.4991 40.9941 17.4363C42.5982 18.3735 42.9227 20.6719 41.7189 22.5701C40.5151 24.4682 38.2389 25.2471 36.6348 24.3099ZM33.0375 10.8766C32.3074 12.9853 33.1602 15.1556 34.9423 15.724C36.7244 16.2924 38.7609 15.0437 39.491 12.935C40.2211 10.8263 39.3683 8.65609 37.5863 8.08769C35.8042 7.51928 33.7676 8.76792 33.0375 10.8766ZM28.1176 30.976C26.6748 31.4029 25.0752 31.3727 23.5673 30.7847C22.1079 30.2157 20.9666 29.2148 20.2384 27.9982C19.4342 28.2667 18.5289 28.2665 17.678 27.9348C15.8184 27.2097 14.9233 25.1751 15.6788 23.3903C16.4167 21.6468 18.4567 20.7866 20.2842 21.4236C21.9673 18.694 25.5224 17.4836 28.6765 18.7134C31.8301 19.943 33.4985 23.1891 32.7226 26.2715L32.7603 26.2855L32.7926 26.298C34.6522 27.0231 35.5473 29.0577 34.7919 30.8425C34.0365 32.6273 31.9165 33.4865 30.057 32.7614C29.1611 32.4121 28.4891 31.7588 28.1176 30.976Z" fill="#F9F4F1"/>
</svg>
