<svg width="46" height="40" viewBox="0 0 46 40" fill="none" xmlns="http://www.w3.org/2000/svg">
<path fill-rule="evenodd" clip-rule="evenodd" d="M21.148 4.90899C22.9885 -1.66028 31.4448 -1.26941 33.9213 3.90421C39.4447 1.85871 45.7884 7.25487 42.3479 13.1985C44.3151 14.4723 47.5295 17.815 44.4808 22.4989C44.3326 22.7267 44.0763 23.0129 43.7723 23.3525C43.4102 23.757 42.9801 24.2374 42.584 24.7849C41.2897 26.5739 39.8246 29.1146 38.4732 32.3168L34.655 40C29.7813 40 7.56609 40 0.736572 40L10.0733 21.2119C11.4248 18.0098 12.2156 15.2054 12.5841 13.0545C12.697 12.3961 12.7368 11.7632 12.7703 11.2302C12.7985 10.7827 12.8222 10.4056 12.881 10.1428C14.0897 4.73942 18.8152 4.50145 21.148 4.90899ZM30.5316 9.29307C29.5128 11.3184 27.3034 12.3154 25.5966 11.52C23.8899 10.7246 23.3322 8.43799 24.3509 6.41266C25.3697 4.38735 27.5792 3.39029 29.2859 4.1857C30.9927 4.98111 31.5504 7.26774 30.5316 9.29307ZM22.3634 13.3697C21.842 15.5632 19.9208 17.0114 18.0723 16.6043C16.2238 16.1971 15.148 14.0889 15.6694 11.8954C16.1909 9.70182 18.1121 8.25363 19.9606 8.66077C21.8091 9.06788 22.8849 11.1761 22.3634 13.3697ZM35.9762 23.605C34.3564 22.656 34.0287 20.3284 35.2443 18.4063C36.4599 16.4842 38.7584 15.6953 40.3781 16.6444C41.9979 17.5934 42.3256 19.921 41.1101 21.8431C39.8945 23.7652 37.596 24.5541 35.9762 23.605ZM32.3438 10.0017C31.6065 12.137 32.4677 14.3348 34.2672 14.9104C36.0667 15.486 38.1231 14.2215 38.8604 12.0861C39.5976 9.95072 38.7365 7.753 36.937 7.1774C35.1375 6.6018 33.081 7.86625 32.3438 10.0017ZM27.3758 30.3555C25.9189 30.7877 24.3037 30.7571 22.781 30.1618C21.3074 29.5855 20.1549 28.572 19.4196 27.3399C18.6076 27.6118 17.6934 27.6117 16.8342 27.2757C14.9564 26.5415 14.0526 24.4811 14.8154 22.6737C15.5606 20.9081 17.6205 20.0371 19.4658 20.6821C21.1654 17.918 24.7552 16.6922 27.9402 17.9376C31.1246 19.1827 32.8093 22.47 32.0258 25.5913L32.0639 25.6056L32.0965 25.6182C33.9743 26.3525 34.8781 28.4129 34.1153 30.2203C33.3525 32.0277 31.2119 32.8977 29.3341 32.1634C28.4295 31.8097 27.7509 31.1482 27.3758 30.3555Z" fill="url(#paint0_linear_123_103)" fill-opacity="0.5"/>
<path fill-rule="evenodd" clip-rule="evenodd" d="M21.148 4.90899C22.9885 -1.66028 31.4448 -1.26941 33.9213 3.90421C39.4447 1.85871 45.7884 7.25487 42.3479 13.1985C44.3151 14.4723 47.5295 17.815 44.4808 22.4989C44.3326 22.7267 44.0763 23.0129 43.7723 23.3525C43.4102 23.757 42.9801 24.2374 42.584 24.7849C41.2897 26.5739 39.8246 29.1146 38.4732 32.3168L34.655 40C29.7813 40 7.56609 40 0.736572 40L10.0733 21.2119C11.4248 18.0098 12.2156 15.2054 12.5841 13.0545C12.697 12.3961 12.7368 11.7632 12.7703 11.2302C12.7985 10.7827 12.8222 10.4056 12.881 10.1428C14.0897 4.73942 18.8152 4.50145 21.148 4.90899ZM30.5316 9.29307C29.5128 11.3184 27.3034 12.3154 25.5966 11.52C23.8899 10.7246 23.3322 8.43799 24.3509 6.41266C25.3697 4.38735 27.5792 3.39029 29.2859 4.1857C30.9927 4.98111 31.5504 7.26774 30.5316 9.29307ZM22.3634 13.3697C21.842 15.5632 19.9208 17.0114 18.0723 16.6043C16.2238 16.1971 15.148 14.0889 15.6694 11.8954C16.1909 9.70182 18.1121 8.25363 19.9606 8.66077C21.8091 9.06788 22.8849 11.1761 22.3634 13.3697ZM35.9762 23.605C34.3564 22.656 34.0287 20.3284 35.2443 18.4063C36.4599 16.4842 38.7584 15.6953 40.3781 16.6444C41.9979 17.5934 42.3256 19.921 41.1101 21.8431C39.8945 23.7652 37.596 24.5541 35.9762 23.605ZM32.3438 10.0017C31.6065 12.137 32.4677 14.3348 34.2672 14.9104C36.0667 15.486 38.1231 14.2215 38.8604 12.0861C39.5976 9.95072 38.7365 7.753 36.937 7.1774C35.1375 6.6018 33.081 7.86625 32.3438 10.0017ZM27.3758 30.3555C25.9189 30.7877 24.3037 30.7571 22.781 30.1618C21.3074 29.5855 20.1549 28.572 19.4196 27.3399C18.6076 27.6118 17.6934 27.6117 16.8342 27.2757C14.9564 26.5415 14.0526 24.4811 14.8154 22.6737C15.5606 20.9081 17.6205 20.0371 19.4658 20.6821C21.1654 17.918 24.7552 16.6922 27.9402 17.9376C31.1246 19.1827 32.8093 22.47 32.0258 25.5913L32.0639 25.6056L32.0965 25.6182C33.9743 26.3525 34.8781 28.4129 34.1153 30.2203C33.3525 32.0277 31.2119 32.8977 29.3341 32.1634C28.4295 31.8097 27.7509 31.1482 27.3758 30.3555Z" fill="url(#paint1_linear_123_103)" fill-opacity="0.5"/>
<defs>
<linearGradient id="paint0_linear_123_103" x1="-3.03651" y1="1.3873e-06" x2="48.4806" y2="3.12955" gradientUnits="userSpaceOnUse">
<stop stop-color="#B57F50"/>
<stop offset="1" stop-color="#935931"/>
</linearGradient>
<linearGradient id="paint1_linear_123_103" x1="-3.03652" y1="2.38966e-05" x2="51.9314" y2="6.42152" gradientUnits="userSpaceOnUse">
<stop stop-color="#874A33"/>
<stop offset="0.9999" stop-color="#D89278"/>
<stop offset="1" stop-color="#DA7550"/>
</linearGradient>
</defs>
</svg>
