<svg width="36" height="36" viewBox="0 0 36 36" fill="none" xmlns="http://www.w3.org/2000/svg">
<g clip-path="url(#clip0_321_35)">
<path d="M10.5452 0.125888C8.62995 0.216248 7.32207 0.521888 6.17871 0.971168C4.99539 1.43233 3.99243 2.05117 2.99451 3.05269C1.99659 4.05421 1.38207 5.05789 0.924149 6.24301C0.480989 7.38889 0.180749 8.69785 0.0961492 10.6141C0.0115492 12.5304 -0.00717081 13.1464 0.00218919 18.0344C0.0115492 22.9225 0.0331492 23.5352 0.126029 25.4555C0.217469 27.3703 0.522029 28.6778 0.971309 29.8216C1.43319 31.0049 2.05131 32.0075 3.05319 33.0058C4.05507 34.004 5.05803 34.6171 6.24603 35.0758C7.39083 35.5182 8.70015 35.8199 10.6161 35.9038C12.532 35.9876 13.1487 36.0071 18.0353 35.9977C22.922 35.9884 23.5372 35.9668 25.4571 35.8757C27.377 35.7846 28.6776 35.4779 29.8217 35.0308C31.005 34.5678 32.0084 33.9508 33.0059 32.9485C34.0035 31.9463 34.6176 30.9419 35.0752 29.756C35.5187 28.6112 35.82 27.3019 35.9032 25.3874C35.9871 23.4661 36.0069 22.8527 35.9975 17.9653C35.9882 13.078 35.9662 12.4652 35.8751 10.5457C35.784 8.62621 35.4791 7.32265 35.0302 6.17821C34.5676 4.99489 33.9502 3.99301 32.9487 2.99401C31.9472 1.99501 30.942 1.38121 29.7566 0.924728C28.611 0.481568 27.3024 0.179528 25.3865 0.0967277C23.4706 0.0139277 22.8539 -0.0073123 17.9655 0.0020477C13.077 0.0114077 12.465 0.0322877 10.5452 0.125888ZM10.7554 32.6656C9.00039 32.5892 8.04747 32.2976 7.41243 32.0536C6.57147 31.7296 5.97243 31.3379 5.33955 30.7111C4.70667 30.0844 4.31787 29.4832 3.98955 28.644C3.74295 28.009 3.44595 27.0571 3.36387 25.3021C3.27459 23.4053 3.25587 22.8358 3.24543 18.0301C3.23499 13.2245 3.25335 12.6557 3.33651 10.7581C3.41139 9.00457 3.70479 8.05057 3.94851 7.41589C4.27251 6.57385 4.66275 5.97589 5.29095 5.34337C5.91915 4.71085 6.51855 4.32133 7.35843 3.99301C7.99275 3.74533 8.94459 3.45085 10.6989 3.36733C12.5972 3.27733 13.166 3.25933 17.9709 3.24889C22.7758 3.23845 23.346 3.25645 25.245 3.33997C26.9986 3.41629 27.953 3.70681 28.5869 3.95197C29.4282 4.27597 30.0269 4.66513 30.6594 5.29441C31.292 5.92369 31.6818 6.52093 32.0101 7.36261C32.2582 7.99513 32.5527 8.94661 32.6355 10.702C32.7258 12.6002 32.7464 13.1694 32.755 17.974C32.7636 22.7785 32.7467 23.3491 32.6636 25.246C32.5869 27.001 32.296 27.9542 32.0516 28.59C31.7276 29.4306 31.337 30.03 30.7084 30.6622C30.0798 31.2943 29.4812 31.6838 28.6409 32.0122C28.0073 32.2595 27.0544 32.5547 25.3016 32.6382C23.4033 32.7275 22.8345 32.7462 18.0278 32.7566C13.221 32.7671 12.654 32.7476 10.7557 32.6656M25.4293 8.37961C25.4301 8.80685 25.5575 9.22428 25.7954 9.5791C26.0334 9.93393 26.3712 10.2102 26.7662 10.373C27.1612 10.5358 27.5957 10.5778 28.0145 10.4937C28.4334 10.4096 28.8179 10.2032 29.1195 9.90055C29.421 9.59789 29.6261 9.21261 29.7086 8.79343C29.7912 8.37424 29.7476 7.93999 29.5833 7.54559C29.4191 7.15118 29.1416 6.81435 28.7859 6.57768C28.4302 6.34102 28.0123 6.21515 27.585 6.21601C27.0123 6.21715 26.4634 6.44572 26.0592 6.85146C25.655 7.25719 25.4284 7.80686 25.4293 8.37961ZM8.75775 18.0179C8.76783 23.1227 12.9136 27.2515 18.0173 27.2418C23.121 27.2321 27.2528 23.0867 27.243 17.9819C27.2333 12.8771 23.0865 8.74717 17.982 8.75725C12.8776 8.76733 8.74803 12.9138 8.75775 18.0179ZM11.9999 18.0114C11.9976 16.8247 12.3472 15.6639 13.0045 14.6759C13.6619 13.6879 14.5974 12.917 15.6929 12.4607C16.7884 12.0044 17.9946 11.8832 19.1589 12.1124C20.3233 12.3416 21.3935 12.911 22.2343 13.7484C23.0751 14.5859 23.6487 15.6539 23.8825 16.8173C24.1163 17.9808 23.9999 19.1874 23.5479 20.2847C23.096 21.382 22.3288 22.3206 21.3434 22.9818C20.358 23.6431 19.1986 23.9973 18.0119 23.9996C17.2239 24.0013 16.4434 23.8477 15.7147 23.5477C14.9861 23.2476 14.3238 22.8069 13.7655 22.2509C13.2072 21.6948 12.7639 21.0342 12.461 20.3068C12.1581 19.5793 12.0014 18.7994 11.9999 18.0114Z" fill="white"/>
</g>
<defs>
<clipPath id="clip0_321_35">
<rect width="36" height="36" fill="white"/>
</clipPath>
</defs>
</svg>
